<svg width="24" height="24" viewBox="0 0 24 24" fill="none" xmlns="http://www.w3.org/2000/svg">
<g clip-path="url(#clip0_402_110)">
<path d="M20.6992 3.84264C20.2778 4.29265 19.6765 4.57206 19.0117 4.56652C17.7511 4.55546 16.7377 3.52451 16.7487 2.26394C16.7598 1.00246 17.7917 -0.0109759 19.0522 8.97636e-05C20.3128 0.0111554 21.3262 1.04211 21.3152 2.30267C21.3096 2.89837 21.0773 3.43875 20.7001 3.84172L20.6992 3.84264Z" fill="#09090B"/>
<path d="M13.9187 17.2119C13.9076 18.4724 12.8767 19.4859 11.6161 19.4748C10.3556 19.4637 9.34212 18.4328 9.35319 17.1722L4.83194 17.1326C4.79874 20.8857 7.8252 23.9665 11.5792 23.9997C15.3323 24.0329 18.4132 21.0065 18.4464 17.2524L13.9187 17.2128V17.2119Z" fill="#09090B"/>
<path d="M16.5892 4.68351C13.9427 1.98994 9.59754 1.95121 6.90397 4.59868C4.2104 7.24522 4.17167 11.5903 6.81914 14.2839C9.46568 16.9775 13.8108 17.0162 16.5044 14.3687C19.1979 11.7222 19.2367 7.37708 16.5892 4.68351ZM13.3709 11.0435C12.9495 11.4935 12.3483 11.7729 11.6834 11.7674C10.4229 11.7563 9.40942 10.7254 9.42049 9.46481C9.43156 8.20424 10.4625 7.19081 11.7231 7.20188C12.9836 7.21294 13.9971 8.24389 13.986 9.50446C13.9805 10.1002 13.7481 10.6405 13.3709 11.0435Z" fill="#09090B"/>
</g>
<defs>
<clipPath id="clip0_402_110">
<rect width="24" height="24" fill="white"/>
</clipPath>
</defs>
</svg>
